<?xml version="1.0" encoding="utf-8"?>
<!-- Generator: Adobe Illustrator 27.4.1, SVG Export Plug-In . SVG Version: 6.00 Build 0)  -->
<svg version="1.1" id="Layer_1" xmlns="http://www.w3.org/2000/svg" xmlns:xlink="http://www.w3.org/1999/xlink" x="0px" y="0px"
	 viewBox="0 0 250 90" style="enable-background:new 0 0 250 90;" xml:space="preserve">
<style type="text/css">
	.st0{fill:#00FFA3;}
	.st1{fill:#FFFFFF;}
</style>
<g>
	<g>
		<polygon class="st0" points="56.4,0 56.4,10.8 59.6,10.8 59.6,3.2 246.8,3.2 246.8,81.1 59.6,81.1 59.6,73.4 56.4,73.4 56.4,84.2 
			250,84.2 250,0 		"/>
	</g>
	<g>
		<g>
			<path class="st0" d="M225.1,66.7c-0.1-0.4-0.2-0.8-0.4-1.2c-0.7-1.5-1.8-2.7-3.2-3.5c-0.7-0.4-1.4-0.7-2.2-0.8
				c-0.4-0.1-0.8-0.1-1.2-0.2c-1.2-0.2-2.4-0.3-3.7-0.4c-0.5,0-1,0-1.5-0.1c-0.1,0-0.2,0-0.2,0c-0.1,0-0.1,0.1-0.2,0.1
				c0,0.1-0.1,0.2-0.1,0.3c0,0.9-0.1,1.7-0.1,2.6c0,0.1,0,0.1,0,0.2c0,0.1,0.1,0.2,0.2,0.2c0,0,0.1,0,0.1,0c1.3,0.1,2.5,0.2,3.8,0.3
				c0.8,0.1,1.6,0.2,2.4,0.3c0.8,0.2,1.5,0.6,2,1.3c0,0.1,0,0.2-0.1,0.2c-0.3,0-0.5,0-0.8,0c-7.1,0-14.2,0-21.3,0
				c-0.2,0-0.4,0-0.5,0c-0.3,0-0.5-0.1-0.7-0.3c-0.3-0.3-0.6-0.6-0.8-0.9c-0.3-0.5-0.5-1-0.7-1.5c-0.3-0.8-0.5-1.7-0.6-2.5
				c-0.2-1.2-0.3-2.4-0.4-3.6c-0.1-2.3,0.1-4.5,0.7-6.7c0.4-1.7,1-3.3,1.9-4.8c0.6-1,1.2-1.9,2-2.7c0.5-0.5,1-1,1.5-1.5
				c0.5-0.6,1.1-1.2,1.6-1.8c0.4-0.5,0.8-1,1.2-1.6c0.3-0.5,0.5-1,0.6-1.6c0-0.1,0-0.3,0-0.4c0-0.1-0.1-0.2-0.1-0.2
				c-0.1,0-0.2,0-0.2,0c-0.9,0-1.8,0-2.8,0c-0.1,0-0.2,0-0.3,0.1c-0.2,0.5-0.6,1-0.9,1.4c-0.4,0.5-0.8,0.9-1.2,1.4
				c-0.6,0.6-1.1,1.2-1.7,1.8c-0.9,0.9-1.7,2-2.4,3.1c-0.9,1.6-1.6,3.2-2.1,4.9c-0.7,2.4-1.1,4.8-1.1,7.3c0,0.9,0,1.9,0.1,2.8
				c0.1,0.8,0.2,1.6,0.3,2.4c0.1,0.6,0.2,1.2,0.4,1.8c0.1,0.4,0,0.5-0.2,0.6c-1.2,0.7-2.4,1.4-3.7,2c-0.7,0.3-1.5,0.6-2.3,0.7
				c-0.6,0.1-1.3,0.2-1.9,0.2c-1.4-0.1-2.5-0.6-3.2-1.8c-0.2-0.2-0.3-0.5-0.4-0.7c-0.2-0.4-0.4-0.9-0.5-1.4
				c-0.2-0.8-0.4-1.6-0.5-2.5c-0.1-1.2-0.2-2.3-0.2-3.5c0-0.6,0.1-1.2,0.1-1.8c0-0.1,0-0.2,0-0.3c-0.2-0.2-0.5-0.2-0.7-0.3
				c-0.8-0.2-1.6-0.5-2.4-0.7c0,0,0,0-0.1,0c-0.1,0.3-0.2,0.6-0.2,1c0,0.3,0,0.7-0.1,1c-0.2,2.2-0.1,4.4,0.4,6.5
				c0.2,1.1,0.6,2.2,1.1,3.3c0.4,0.8,0.9,1.6,1.5,2.2c1.3,1.4,3,2.2,5,2.3c1.2,0.1,2.4-0.1,3.6-0.4c1.2-0.3,2.4-0.8,3.5-1.4
				c0.8-0.4,1.6-0.8,2.4-1.3c0.2-0.1,0.3-0.2,0.5-0.2c0.3,0.2,0.4,0.4,0.5,0.6c0.5,0.7,1.1,1.2,1.9,1.7c0.5,0.3,1.1,0.5,1.8,0.5
				c0.2,0,0.4,0,0.5,0c4.4,0,8.7,0,13.1,0c3.6,0,7.3,0,10.9,0c0.3,0,0.6,0,0.9,0c0.5,0,0.8-0.3,1.1-0.6c0.2-0.2,0.3-0.5,0.4-0.7
				C225.2,67.7,225.2,67.2,225.1,66.7z"/>
			<path class="st0" d="M208.9,22.1c0,0.1,0.1,0.1,0.2,0.1c0.2-0.1,0.4-0.2,0.6-0.4c0.8-0.5,1.7-0.9,2.6-1.2
				c0.8-0.3,1.7-0.4,2.6-0.3c0.9,0.1,1.7,0,2.6-0.2c0.8-0.1,1.5-0.3,2.2-0.6c0.1,0,0.2-0.1,0.3-0.1c0,0,0.1,0,0.1,0.1
				c0,0.1,0.1,0.2,0.1,0.3c0.1,1.1,0.1,2.1-0.2,3.1c-0.3,1.2-0.8,2.3-1.5,3.3c-0.6,1-1.4,1.9-2.2,2.7c-0.3,0.3-0.6,0.6-0.9,0.9
				c-0.8,0.8-1.4,1.6-1.8,2.6c-0.4,0.9-0.7,1.9-0.7,2.9c0,1.3,0.2,2.4,0.7,3.6c0.4,0.9,1,1.8,1.6,2.6c0.2,0.2,0.4,0.5,0.7,0.6
				c0.6,0.4,1.1,0.8,1.6,1.3c0.5,0.5,1,1.1,1.5,1.7c0.3,0.5,0.6,1,0.8,1.6c0.2,0.8,0.2,1.6-0.1,2.3c0,0.1-0.1,0.2-0.1,0.4
				c0,0.1,0,0.2,0.1,0.3c0,0,0.1,0.1,0.1,0.1c0.8,0.5,1.5,0.9,2.3,1.4c0.1,0.1,0.2,0.1,0.3,0.1c0.1-0.1,0.1-0.1,0.2-0.2
				c0.8-1.4,1.1-3,0.8-4.6c-0.2-0.9-0.5-1.7-0.9-2.4c-0.5-0.9-1.1-1.7-1.8-2.4c-0.7-0.7-1.4-1.4-2.2-2c-0.2-0.2-0.4-0.3-0.6-0.5
				c-0.4-0.6-0.8-1.2-1-1.8c-0.6-1.8-0.3-3.5,1-4.9c0.2-0.2,0.4-0.4,0.6-0.6c1-1,1.9-2,2.8-3.2c0.7-0.9,1.2-1.9,1.7-3
				c0.7-1.5,1-3.1,0.9-4.8c0-1-0.1-2-0.2-3.1c0-0.5-0.2-1-0.5-1.4c-0.4-0.6-0.9-0.9-1.6-1c-0.5,0-1.1,0-1.6,0.3
				c-0.1,0.1-0.2,0.1-0.3,0.2c-1.3,0.6-2.6,1-4,1c-0.3,0-0.7,0-1,0c-0.8,0-1.5,0.1-2.3,0.3c-1.8,0.4-3.4,1.2-4.9,2.1
				c-0.1,0-0.1,0.1-0.2,0.1c-0.1,0.1-0.1,0.2,0,0.3C207.7,20.5,208.3,21.3,208.9,22.1z"/>
			<path class="st0" d="M213.4,51.4C213.3,51.4,213.3,51.4,213.4,51.4c-0.1,0-0.2,0.1-0.2,0.1c-0.1,0.1-0.1,0.3-0.1,0.4
				c-0.2,0.9-0.5,1.7-1,2.5c-0.3,0.6-0.7,1.2-1.2,1.6c-0.7,0.7-1.5,1.1-2.5,1.3c-0.5,0.1-1,0.1-1.4,0.1c-0.2,0-0.4,0-0.6,0
				c0,0.1-0.1,0.2-0.1,0.4c-0.1,0.8-0.2,1.7-0.3,2.5c0,0.1,0,0.2,0,0.3c0,0.1,0,0.2,0.1,0.2c0.2,0,0.3,0.1,0.5,0.1
				c0.7,0,1.5,0,2.2-0.1c1.8-0.3,3.3-1,4.5-2.3c0.6-0.6,1.1-1.2,1.5-1.9c0.8-1.3,1.4-2.7,1.7-4.2c0-0.1,0.1-0.3,0.1-0.5
				c0-0.1-0.1-0.1-0.1-0.2c0,0-0.1-0.1-0.1-0.1C215.3,51.7,214.3,51.6,213.4,51.4z"/>
			<path class="st0" d="M200.9,34.5c4.4,0,7.8-3.5,7.9-7.8c0-4.3-3.4-7.9-7.8-7.9c-4.4,0-7.9,3.5-7.9,7.9
				C193.1,31.1,196.6,34.5,200.9,34.5z M200.9,22.1c2.5,0,4.6,2,4.6,4.6s-2,4.6-4.6,4.6s-4.6-2-4.6-4.6S198.4,22.1,200.9,22.1z"/>
		</g>
	</g>
	<g>
		<path class="st1" d="M24,59.6H0v-6.2L12.7,41v-0.1H0v-6.2h24v6.2L11.2,53.2v0.1H24V59.6z"/>
		<path class="st1" d="M34.8,59.6h-7.5V24.7h7.5v18.6H35l7.4-8.6h9L40.8,46.5l11.8,13.1h-9.4L35,49.7h-0.2V59.6z"/>
		<path class="st1" d="M64.1,47.1v12.5h-8.6V24.7h19.6c3.7,0,6.4,0.9,8.1,2.8c1.7,1.9,2.5,4.7,2.5,8.4c0,2-0.2,3.6-0.7,4.9
			c-0.5,1.3-1,2.3-1.7,3.1c-0.7,0.8-1.4,1.3-2.2,1.7c-0.8,0.4-1.5,0.7-2.1,0.8l7.3,13.1h-9.7l-6.8-12.5H64.1z M64.1,40.1h8.5
			c0.5,0,1.1-0.1,1.6-0.2c0.5-0.1,1-0.3,1.4-0.6c0.4-0.3,0.7-0.7,1-1.3c0.3-0.5,0.4-1.2,0.4-2.1c0-0.8-0.1-1.5-0.4-2
			c-0.3-0.5-0.6-0.9-1-1.2c-0.4-0.3-0.9-0.4-1.4-0.5c-0.5-0.1-1.1-0.1-1.6-0.1h-8.5V40.1z"/>
		<path class="st1" d="M89.6,34.6h14.2c1,0,2,0.1,3.1,0.4c1.1,0.3,2,0.8,2.9,1.5c0.9,0.7,1.6,1.6,2.2,2.8c0.6,1.2,0.9,2.7,0.9,4.4
			v15.8h-17c-2.6,0-4.6-0.7-5.9-2.1c-1.3-1.4-2-3.2-2-5.5c0-2.3,0.7-4.2,2-5.6c1.3-1.4,3.3-2.1,5.9-2.1h9.6c0-0.4-0.1-0.9-0.2-1.3
			c-0.1-0.4-0.3-0.9-0.6-1.2c-0.3-0.4-0.6-0.7-1.1-0.9c-0.5-0.2-1.1-0.3-1.8-0.3H89.6V34.6z M105.3,49.9h-7.6
			c-0.6,0-1.1,0.1-1.6,0.4c-0.5,0.2-0.7,0.8-0.7,1.6c0,0.8,0.2,1.3,0.7,1.5c0.5,0.2,1,0.4,1.7,0.4h7.6V49.9z"/>
		<path class="st1" d="M125.9,59.6c-1,0-1.9-0.1-2.8-0.2c-0.9-0.1-1.7-0.5-2.4-1c-0.7-0.5-1.3-1.3-1.7-2.3c-0.4-1-0.6-2.3-0.6-4
			V40.5h-4.5v-5.9h4.5v-10h7.5v10h6.9v5.9h-6.9v9.7c0,0.4,0,0.9,0.1,1.3c0,0.4,0.2,0.8,0.4,1.1c0.2,0.3,0.6,0.6,1.1,0.8
			c0.5,0.2,1.1,0.3,2,0.3h3.4v5.9H125.9z"/>
		<path class="st1" d="M140.3,49.3c-1-0.4-1.8-0.9-2.5-1.6c-0.7-0.7-1.2-1.5-1.5-2.4c-0.3-0.9-0.5-1.9-0.5-3.1c0-1.1,0.2-2.1,0.5-3
			c0.3-0.9,0.9-1.7,1.5-2.4c0.7-0.7,1.5-1.2,2.5-1.6c1-0.4,2.1-0.6,3.3-0.6h15.7v5.9h-14.2c-0.7,0-1.3,0.1-1.8,0.4
			c-0.5,0.2-0.7,0.7-0.7,1.5c0,0.8,0.2,1.3,0.7,1.5c0.5,0.2,1.1,0.4,1.8,0.4h7.7c1.3,0,2.4,0.2,3.3,0.6c1,0.4,1.8,0.9,2.5,1.6
			c0.7,0.7,1.2,1.5,1.5,2.4c0.3,0.9,0.5,1.9,0.5,3.1c0,1.1-0.2,2.1-0.5,3c-0.3,0.9-0.9,1.7-1.5,2.4s-1.5,1.2-2.5,1.6
			c-1,0.4-2.1,0.6-3.3,0.6h-17.1v-5.9h15.6c0.7,0,1.3-0.1,1.7-0.4c0.5-0.2,0.7-0.7,0.7-1.5c0-0.8-0.2-1.3-0.7-1.5
			c-0.5-0.3-1.1-0.4-1.7-0.4h-7.8C142.3,49.9,141.2,49.7,140.3,49.3z"/>
	</g>
</g>
</svg>
